<?xml version="1.0"?>
<svg xmlns="http://www.w3.org/2000/svg" xmlns:xlink="http://www.w3.org/1999/xlink" xmlns:svgjs="http://svgjs.com/svgjs" version="1.1" width="512" height="512" x="0" y="0" viewBox="0 0 514 514" style="enable-background:new 0 0 512 512" xml:space="preserve" class=""><g><path xmlns="http://www.w3.org/2000/svg" d="m411.673 202.92c3.547-13.247 5.45-27.16 5.45-41.511 0-88.568-72.055-160.623-160.623-160.623s-160.623 72.056-160.623 160.623c0 14.479 1.937 28.512 5.546 41.866-59.356 23.617-101.423 81.644-101.423 149.316 0 34.714 10.903 67.766 31.529 95.581 1.472 1.984 3.736 3.033 6.03 3.033 1.552 0 3.119-.48 4.461-1.476 3.327-2.467 4.024-7.165 1.557-10.492-18.695-25.211-28.577-55.173-28.577-86.646 0-60.999 37.704-113.349 91.027-134.993 16.01 42.736 49.726 76.89 92.177 93.482-3.547 13.247-5.45 27.16-5.45 41.511 0 46.909 20.216 89.183 52.389 118.576-3.489 2.493-7.082 4.846-10.789 7.027-22.258 13.098-47.754 20.021-73.731 20.021-35.548 0-69.784-12.958-96.402-36.489-3.103-2.743-7.843-2.452-10.586.652-2.744 3.103-2.452 7.843.652 10.586 29.361 25.956 67.126 40.25 106.336 40.25 28.651 0 56.777-7.64 81.338-22.092 5.225-3.075 10.25-6.455 15.078-10.086 26.858 20.195 60.224 32.179 96.338 32.179 88.568 0 160.623-72.055 160.623-160.623 0-68.016-42.495-126.286-102.327-149.672zm-291.469 9.76c12.839-3.715 26.399-5.712 40.419-5.712 2.395 0 4.85.062 7.298.182 4.122.203 7.657-2.983 7.861-7.121.205-4.137-2.983-7.657-7.121-7.861-2.694-.133-5.398-.201-8.039-.201-15.61 0-30.703 2.247-44.983 6.42-3.103-11.813-4.763-24.205-4.763-36.978 0-80.297 65.326-145.623 145.623-145.623s145.623 65.326 145.623 145.623c0 12.674-1.631 24.973-4.688 36.702-14.005-4-28.786-6.144-44.058-6.144-36.105 0-69.463 11.977-96.317 32.163-16.071-12.094-34.582-21.297-54.869-26.719-4.001-1.068-8.113 1.308-9.182 5.31-1.069 4.001 1.308 8.112 5.309 9.182 17.183 4.592 32.961 12.177 46.843 22.096-18.722 17.099-33.392 38.56-42.392 62.758-37.963-15.125-68.11-45.782-82.564-84.077zm136.851 30.796c17.721 15.699 31.455 35.568 39.853 57.848-12.835 3.713-26.392 5.709-40.407 5.709-13.692 0-26.946-1.903-39.518-5.452 8.456-22.54 22.348-42.441 40.072-58.105zm11.893-9.471c23.83-17.015 52.981-27.038 84.429-27.038 13.692 0 26.946 1.903 39.518 5.452-14.307 38.13-44.164 68.712-81.812 83.989-8.94-23.892-23.44-45.286-42.135-62.403zm84.429 264.209c-31.455 0-60.612-10.027-84.445-27.05 12.055-11.021 22.443-23.84 30.685-38.035 2.08-3.582.862-8.172-2.72-10.252-3.581-2.08-8.172-.863-10.252 2.72-7.877 13.566-17.901 25.761-29.594 36.106-30.211-26.702-49.298-65.717-49.298-109.112 0-12.674 1.631-24.973 4.688-36.702 14.005 4 28.786 6.144 44.058 6.144 15.604 0 30.692-2.246 44.967-6.415 3.121 11.87 4.779 24.272 4.779 36.973 0 15.426-2.409 30.632-7.16 45.197-1.284 3.938.867 8.171 4.805 9.456.772.252 1.556.372 2.327.372 3.158 0 6.096-2.011 7.129-5.176 5.242-16.069 7.899-32.841 7.899-49.849 0-14.395-1.93-28.441-5.559-41.86 42.149-16.766 75.576-50.885 91.421-93.487 53.782 21.426 91.893 74.017 91.893 135.347 0 80.296-65.326 145.623-145.623 145.623z" fill="#777fff" data-original="#000000" style=""/></g></svg>
