<?xml version="1.0"?>
<svg xmlns="http://www.w3.org/2000/svg" xmlns:xlink="http://www.w3.org/1999/xlink" xmlns:svgjs="http://svgjs.com/svgjs" version="1.1" width="512" height="512" x="0" y="0" viewBox="0 0 511.99975 511" style="enable-background:new 0 0 512 512" xml:space="preserve" class=""><g><path xmlns="http://www.w3.org/2000/svg" d="m493.714844 97.953125c-11.792969-11.792969-27.46875-18.285156-44.148438-18.285156-16.675781 0-32.351562 6.492187-44.144531 18.285156l-211.023437 211.023437-87.851563-87.847656c-11.789063-11.792968-27.46875-18.289062-44.144531-18.289062-16.675782 0-32.351563 6.496094-44.144532 18.289062-24.34375 24.339844-24.34375 63.949219 0 88.289063l131.996094 131.996093c11.789063 11.792969 27.46875 18.285157 44.144532 18.285157 16.675781 0 32.355468-6.492188 44.144531-18.285157l255.171875-255.167968c11.789062-11.792969 18.285156-27.46875 18.285156-44.148438 0-16.675781-6.496094-32.351562-18.285156-44.144531zm0 0" fill="#ffffff" data-original="#000000" style="" class=""/><path xmlns="http://www.w3.org/2000/svg" d="m89.628906 159.78125c12.851563 4.789062 24.300782 12.148438 34.03125 21.882812 9.714844 9.710938 17.078125 21.164063 21.886719 34.027344 2.222656 5.957032 7.914063 9.90625 14.273437 9.90625 6.359376 0 12.046876-3.945312 14.273438-9.902344 9.675781-25.882812 30.054688-46.265624 55.914062-55.917968 5.957032-2.222656 9.910157-7.914063 9.910157-14.273438s-3.949219-12.050781-9.90625-14.277344c-12.871094-4.8125-24.320313-12.175781-34.035157-21.90625-9.703124-9.691406-17.066406-21.136718-21.882812-34.027343-2.222656-5.953125-7.914062-9.902344-14.273438-9.902344-6.359374 0-12.046874 3.949219-14.273437 9.90625-4.816406 12.882813-12.175781 24.332031-21.894531 34.035156-9.703125 9.714844-21.15625 17.082031-34.03125 21.890625-5.960938 2.226563-9.910156 7.917969-9.910156 14.28125.003906 6.363282 3.957031 12.054688 9.917968 14.277344zm0 0" fill="#ffffff" data-original="#000000" style="" class=""/><path xmlns="http://www.w3.org/2000/svg" d="m240.503906 81.117188c9.683594 3.609374 18.3125 9.15625 25.648438 16.492187 7.320312 7.320313 12.871094 15.953125 16.496094 25.652344 2.226562 5.957031 7.917968 9.90625 14.277343 9.90625 6.355469 0 12.046875-3.949219 14.273438-9.90625 7.292969-19.507813 22.652343-34.871094 42.144531-42.148438 5.957031-2.222656 9.90625-7.914062 9.90625-14.273437.003906-6.359375-3.945312-12.050782-9.902344-14.277344-9.703125-3.625-18.332031-9.175781-25.65625-16.511719-7.3125-7.304687-12.863281-15.933593-16.492187-25.644531-2.226563-5.957031-7.914063-9.90625-14.273438-9.90625s-12.050781 3.949219-14.277343 9.902344c-3.628907 9.714844-9.179688 18.34375-16.5 25.660156-7.316407 7.324219-15.949219 12.875-25.652344 16.5-5.960938 2.226562-9.910156 7.917969-9.910156 14.28125.003906 6.363281 3.957031 12.054688 9.917968 14.273438zm0 0" fill="#ffffff" data-original="#000000" style="" class=""/></g></svg>
