<?xml version="1.0"?>
<svg xmlns="http://www.w3.org/2000/svg" xmlns:xlink="http://www.w3.org/1999/xlink" xmlns:svgjs="http://svgjs.com/svgjs" version="1.1" width="512" height="512" x="0" y="0" viewBox="0 0 496 496" style="enable-background:new 0 0 512 512" xml:space="preserve"><g><g xmlns="http://www.w3.org/2000/svg" fill="#231f20"><path d="m480 0h-464c-8.835938 0-16 7.164062-16 16v328c0 8.835938 7.164062 16 16 16h464c8.835938 0 16-7.164062 16-16v-328c0-8.835938-7.164062-16-16-16zm0 16v64h-464v-64zm-464 328v-248h464v248zm0 0" fill="#777fff" data-original="#231f20" style=""/><path d="m48 72c13.253906 0 24-10.746094 24-24s-10.746094-24-24-24-24 10.746094-24 24 10.746094 24 24 24zm0-32c4.417969 0 8 3.582031 8 8s-3.582031 8-8 8-8-3.582031-8-8 3.582031-8 8-8zm0 0" fill="#777fff" data-original="#231f20" style=""/><path d="m104 72c13.253906 0 24-10.746094 24-24s-10.746094-24-24-24-24 10.746094-24 24 10.746094 24 24 24zm0-32c4.417969 0 8 3.582031 8 8s-3.582031 8-8 8-8-3.582031-8-8 3.582031-8 8-8zm0 0" fill="#777fff" data-original="#231f20" style=""/><path d="m160 72c13.253906 0 24-10.746094 24-24s-10.746094-24-24-24-24 10.746094-24 24 10.746094 24 24 24zm0-32c4.417969 0 8 3.582031 8 8s-3.582031 8-8 8-8-3.582031-8-8 3.582031-8 8-8zm0 0" fill="#777fff" data-original="#231f20" style=""/><path d="m448 48h8c4.417969 0 8-3.582031 8-8s-3.582031-8-8-8h-8c-4.417969 0-8 3.582031-8 8s3.582031 8 8 8zm0 0" fill="#777fff" data-original="#231f20" style=""/><path d="m368 48h56c4.417969 0 8-3.582031 8-8s-3.582031-8-8-8h-56c-4.417969 0-8 3.582031-8 8s3.582031 8 8 8zm0 0" fill="#777fff" data-original="#231f20" style=""/><path d="m393.480469 211.382812c-2.640625-3.726562-65.480469-91.382812-145.480469-91.382812s-142.839844 87.65625-145.480469 91.382812c-1.953125 2.769532-1.953125 6.464844 0 9.234376 2.640625 3.726562 65.519531 91.382812 145.480469 91.382812s142.839844-87.65625 145.480469-91.382812c1.953125-2.769532 1.953125-6.464844 0-9.234376zm-145.480469 84.617188c-61.792969 0-115.054688-62.328125-128.921875-80 13.851563-17.6875 67.027344-80 128.921875-80s115.054688 62.328125 128.921875 80c-13.851563 17.6875-67.027344 80-128.921875 80zm0 0" fill="#777fff" data-original="#231f20" style=""/><path d="m248 160c-30.929688 0-56 25.070312-56 56s25.070312 56 56 56 56-25.070312 56-56c-.035156-30.914062-25.085938-55.964844-56-56zm0 96c-22.089844 0-40-17.910156-40-40s17.910156-40 40-40 40 17.910156 40 40c-.027344 22.082031-17.917969 39.972656-40 40zm0 0" fill="#777fff" data-original="#231f20" style=""/></g></g></svg>
